<svg width="348" height="127" viewBox="0 0 348 127" fill="none" xmlns="http://www.w3.org/2000/svg">
<path d="M55.3823 21.2H62.5603L40.5823 50.8L36.8083 73H30.5923L34.5143 50.504L22.8223 21.2H29.5563L38.3623 45.028L55.3823 21.2ZM52.2992 55.98C52.7432 52.6747 53.8778 49.69 55.7032 47.026C57.5778 44.362 59.9212 42.2407 62.7332 40.662C65.5945 39.034 68.6778 38.22 71.9832 38.22C75.2885 38.22 78.1005 39.0587 80.4192 40.736C82.7378 42.364 84.4398 44.5347 85.5252 47.248C86.6598 49.912 87.0052 52.8227 86.5612 55.98C86.1172 59.236 84.9578 62.196 83.0832 64.86C81.2578 67.524 78.9392 69.67 76.1272 71.298C73.3152 72.8767 70.2318 73.666 66.8772 73.666C63.6212 73.666 60.8092 72.852 58.4412 71.224C56.1225 69.596 54.4205 67.45 53.3352 64.786C52.2498 62.0727 51.9045 59.1373 52.2992 55.98ZM58.1452 55.98C57.8492 58.052 58.0218 60.0253 58.6632 61.9C59.3045 63.7253 60.3405 65.23 61.7712 66.414C63.2512 67.5487 65.1012 68.116 67.3212 68.116C69.5905 68.116 71.6625 67.5733 73.5372 66.488C75.4612 65.4027 77.0398 63.9227 78.2732 62.048C79.5558 60.1733 80.3698 58.1507 80.7152 55.98C81.0112 53.8587 80.8385 51.8853 80.1972 50.06C79.5558 48.2347 78.4952 46.73 77.0152 45.546C75.5352 44.362 73.6852 43.77 71.4652 43.77C69.2452 43.77 67.1732 44.3373 65.2492 45.472C63.3745 46.5573 61.7958 48.0373 60.5132 49.912C59.2798 51.7373 58.4905 53.76 58.1452 55.98ZM99.0874 59.68C98.8901 61.16 98.9147 62.5413 99.1614 63.824C99.4081 65.1067 99.9507 66.1427 100.789 66.932C101.628 67.7213 102.861 68.116 104.489 68.116C106.216 68.116 107.77 67.7707 109.151 67.08C110.533 66.34 111.667 65.3533 112.555 64.12C113.493 62.8867 114.085 61.5053 114.331 59.976L118.031 38.96H123.951L118.031 73H112.185L112.999 67.82C111.766 69.6453 110.261 71.076 108.485 72.112C106.759 73.148 104.761 73.666 102.491 73.666C100.025 73.666 98.0267 73.0493 96.4974 71.816C95.0174 70.5827 94.0061 68.9547 93.4634 66.932C92.9207 64.9093 92.8221 62.7387 93.1674 60.42L96.9414 38.96H102.639L99.0874 59.68ZM125.854 27.12L126.964 21.2H159.006L157.97 27.12H145.094L137.176 73H130.96L138.878 27.12H125.854ZM158.273 59.68C158.076 61.16 158.1 62.5413 158.347 63.824C158.594 65.1067 159.136 66.1427 159.975 66.932C160.814 67.7213 162.047 68.116 163.675 68.116C165.402 68.116 166.956 67.7707 168.337 67.08C169.718 66.34 170.853 65.3533 171.741 64.12C172.678 62.8867 173.27 61.5053 173.517 59.976L177.217 38.96H183.137L177.217 73H171.371L172.185 67.82C170.952 69.6453 169.447 71.076 167.671 72.112C165.944 73.148 163.946 73.666 161.677 73.666C159.21 73.666 157.212 73.0493 155.683 71.816C154.203 70.5827 153.192 68.9547 152.649 66.932C152.106 64.9093 152.008 62.7387 152.353 60.42L156.127 38.96H161.825L158.273 59.68ZM203.249 15.28L193.333 73H187.487L197.403 15.28H203.249ZM223.895 55.98C223.451 59.2853 222.292 62.2947 220.417 65.008C218.592 67.7213 216.298 69.8673 213.535 71.446C210.822 72.9753 207.862 73.74 204.655 73.74C202.386 73.74 200.462 73.2467 198.883 72.26C197.354 71.2733 196.145 69.9413 195.257 68.264C194.369 66.5867 193.777 64.6873 193.481 62.566C193.235 60.4447 193.259 58.2493 193.555 55.98C193.901 53.5627 194.542 51.2933 195.479 49.172C196.417 47.0013 197.601 45.102 199.031 43.474C200.462 41.846 202.115 40.5633 203.989 39.626C205.913 38.6887 208.01 38.22 210.279 38.22C213.486 38.22 216.175 39.034 218.345 40.662C220.565 42.29 222.144 44.4607 223.081 47.174C224.068 49.838 224.339 52.7733 223.895 55.98ZM218.049 55.98C218.395 53.76 218.247 51.7373 217.605 49.912C217.013 48.0373 215.977 46.5573 214.497 45.472C213.067 44.3373 211.266 43.77 209.095 43.77C207.615 43.77 206.16 44.0907 204.729 44.732C203.348 45.324 202.065 46.1873 200.881 47.322C199.697 48.4073 198.686 49.69 197.847 51.17C197.058 52.65 196.515 54.2533 196.219 55.98C196.022 57.608 196.047 59.1373 196.293 60.568C196.589 61.9987 197.107 63.2813 197.847 64.416C198.587 65.5507 199.5 66.4387 200.585 67.08C201.72 67.7213 203.027 68.0667 204.507 68.116C206.727 68.1653 208.775 67.672 210.649 66.636C212.573 65.5507 214.201 64.0953 215.533 62.27C216.865 60.3953 217.704 58.2987 218.049 55.98ZM243.042 73.74C240.23 73.74 237.763 73.1233 235.642 71.89C233.52 70.6567 231.868 68.8807 230.684 66.562C229.5 64.2433 228.908 61.456 228.908 58.2C228.908 55.536 229.376 53.02 230.314 50.652C231.3 48.2347 232.632 46.1133 234.31 44.288C236.036 42.4133 238.034 40.9333 240.304 39.848C242.622 38.7627 245.138 38.22 247.852 38.22C250.713 38.22 253.155 38.7873 255.178 39.922C257.25 41.0567 258.853 42.734 259.988 44.954C261.122 47.1247 261.69 49.838 261.69 53.094C261.69 53.834 261.591 54.648 261.394 55.536C261.246 56.424 261.073 57.0653 260.876 57.46H232.534V52.428H256.954L254.66 55.832C254.906 55.24 255.128 54.6233 255.326 53.982C255.523 53.2913 255.622 52.6007 255.622 51.91C255.622 50.134 255.301 48.6293 254.66 47.396C254.068 46.1133 253.18 45.1267 251.996 44.436C250.812 43.7453 249.307 43.4 247.482 43.4C245.607 43.4 243.88 43.7947 242.302 44.584C240.772 45.324 239.44 46.36 238.306 47.692C237.171 49.024 236.283 50.578 235.642 52.354C235.05 54.0807 234.754 55.906 234.754 57.83C234.754 59.8527 235.074 61.6533 235.716 63.232C236.357 64.8107 237.344 66.044 238.676 66.932C240.008 67.7707 241.71 68.19 243.782 68.19C246.1 68.19 248.197 67.6227 250.072 66.488C251.996 65.304 253.574 63.824 254.808 62.048L259.47 65.082C257.694 67.598 255.424 69.67 252.662 71.298C249.899 72.926 246.692 73.74 243.042 73.74Z" fill="#FF0000"/>
<path d="M162.979 86.16H175.075L174.373 90.21H162.223L162.979 86.16ZM168.217 77.52H172.591L166.759 111H162.601L168.217 77.52ZM175.258 98.58C175.582 96.168 176.41 93.99 177.742 92.046C179.11 90.102 180.82 88.554 182.872 87.402C184.96 86.214 187.21 85.62 189.622 85.62C192.034 85.62 194.086 86.232 195.778 87.456C197.47 88.644 198.712 90.228 199.504 92.208C200.332 94.152 200.584 96.276 200.26 98.58C199.936 100.956 199.09 103.116 197.722 105.06C196.39 107.004 194.698 108.57 192.646 109.758C190.594 110.91 188.344 111.486 185.896 111.486C183.52 111.486 181.468 110.892 179.74 109.704C178.048 108.516 176.806 106.95 176.014 105.006C175.222 103.026 174.97 100.884 175.258 98.58ZM179.524 98.58C179.308 100.092 179.434 101.532 179.902 102.9C180.37 104.232 181.126 105.33 182.17 106.194C183.25 107.022 184.6 107.436 186.22 107.436C187.876 107.436 189.388 107.04 190.756 106.248C192.16 105.456 193.312 104.376 194.212 103.008C195.148 101.64 195.742 100.164 195.994 98.58C196.21 97.032 196.084 95.592 195.616 94.26C195.148 92.928 194.374 91.83 193.294 90.966C192.214 90.102 190.864 89.67 189.244 89.67C187.624 89.67 186.112 90.084 184.708 90.912C183.34 91.704 182.188 92.784 181.252 94.152C180.352 95.484 179.776 96.96 179.524 98.58ZM229.585 85.458L222.457 111H217.867L229.207 71.256L239.143 98.58L258.691 71.094L256.207 111H251.725L253.345 85.674L237.739 107.544L229.585 85.458ZM268.904 73.2H273.494L266.96 111H262.532L268.904 73.2ZM270.632 77.52L271.388 73.2H278.786C281.09 73.2 283.106 73.686 284.834 74.658C286.562 75.594 287.858 76.926 288.722 78.654C289.622 80.346 289.892 82.308 289.532 84.54C289.172 86.808 288.308 88.806 286.94 90.534C285.572 92.226 283.862 93.54 281.81 94.476C279.794 95.412 277.598 95.88 275.222 95.88H267.5L268.256 91.56H275.654C277.202 91.524 278.624 91.236 279.92 90.696C281.252 90.156 282.368 89.364 283.268 88.32C284.168 87.276 284.744 86.016 284.996 84.54C285.248 83.064 285.122 81.804 284.618 80.76C284.114 79.716 283.322 78.924 282.242 78.384C281.162 77.808 279.866 77.52 278.354 77.52H270.632ZM303.747 92.316L304.125 89.4C305.601 89.292 306.933 88.968 308.121 88.428C309.309 87.888 310.299 87.15 311.091 86.214C311.883 85.242 312.387 84.126 312.603 82.866C312.783 81.786 312.729 80.796 312.441 79.896C312.189 78.996 311.703 78.258 310.983 77.682C310.263 77.106 309.309 76.818 308.121 76.818C306.933 76.782 305.853 77.034 304.881 77.574C303.909 78.114 303.081 78.816 302.397 79.68C301.749 80.544 301.281 81.498 300.993 82.542H296.673C297.033 80.67 297.735 78.996 298.779 77.52C299.859 76.008 301.209 74.82 302.829 73.956C304.485 73.092 306.339 72.66 308.391 72.66C310.407 72.66 312.117 73.146 313.521 74.118C314.925 75.054 315.951 76.278 316.599 77.79C317.247 79.302 317.445 80.94 317.193 82.704C316.977 84.18 316.455 85.512 315.627 86.7C314.835 87.852 313.827 88.842 312.603 89.67C311.415 90.462 310.065 91.092 308.553 91.56C307.041 91.992 305.439 92.244 303.747 92.316ZM302.505 111.486C300.237 111.486 298.293 111.036 296.673 110.136C295.089 109.2 293.919 107.94 293.163 106.356C292.407 104.772 292.101 102.99 292.245 101.01H296.781C296.709 102.198 296.889 103.26 297.321 104.196C297.789 105.096 298.491 105.816 299.427 106.356C300.363 106.896 301.515 107.166 302.883 107.166C304.287 107.166 305.547 106.878 306.663 106.302C307.815 105.726 308.769 104.934 309.525 103.926C310.281 102.918 310.749 101.766 310.929 100.47C311.109 99.282 311.037 98.274 310.713 97.446C310.389 96.582 309.867 95.88 309.147 95.34C308.463 94.764 307.635 94.332 306.663 94.044C305.691 93.72 304.647 93.522 303.531 93.45L303.963 90.48C305.655 90.516 307.239 90.75 308.715 91.182C310.227 91.614 311.523 92.262 312.603 93.126C313.719 93.954 314.529 95.034 315.033 96.366C315.573 97.662 315.717 99.21 315.465 101.01C315.177 103.098 314.403 104.934 313.143 106.518C311.919 108.066 310.371 109.29 308.499 110.19C306.663 111.054 304.665 111.486 302.505 111.486Z" fill="black"/>
</svg>
